<?xml version="1.0" encoding="UTF-8" standalone="no"?>
<!-- Created with Inkscape (http://www.inkscape.org/) -->

<svg
   xmlns:dc="http://purl.org/dc/elements/1.1/"
   xmlns:cc="http://creativecommons.org/ns#"
   xmlns:rdf="http://www.w3.org/1999/02/22-rdf-syntax-ns#"
   xmlns:svg="http://www.w3.org/2000/svg"
   xmlns="http://www.w3.org/2000/svg"
   xmlns:sodipodi="http://sodipodi.sourceforge.net/DTD/sodipodi-0.dtd"
   xmlns:inkscape="http://www.inkscape.org/namespaces/inkscape"
   width="20.32mm"
   height="20.32mm"
   viewBox="0 0 71.999999 71.999999"
   id="svg5183"
   version="1.1"
   inkscape:version="0.91 r13725"
   sodipodi:docname="restore.svg">
  <defs
     id="defs5185" />
  <sodipodi:namedview
     id="base"
     pagecolor="#ffffff"
     bordercolor="#666666"
     borderopacity="1.0"
     inkscape:pageopacity="0"
     inkscape:pageshadow="2"
     inkscape:zoom="7.517429"
     inkscape:cx="-10.626711"
     inkscape:cy="37.352287"
     inkscape:document-units="px"
     inkscape:current-layer="layer1"
     showgrid="false"
     fit-margin-top="0"
     fit-margin-left="0"
     fit-margin-right="0"
     fit-margin-bottom="0"
     inkscape:window-width="1680"
     inkscape:window-height="1026"
     inkscape:window-x="0"
     inkscape:window-y="24"
     inkscape:window-maximized="1" />
  <metadata
     id="metadata5188">
    <rdf:RDF>
      <cc:Work
         rdf:about="">
        <dc:format>image/svg+xml</dc:format>
        <dc:type
           rdf:resource="http://purl.org/dc/dcmitype/StillImage" />
        <dc:title></dc:title>
      </cc:Work>
    </rdf:RDF>
  </metadata>
  <g
     inkscape:label="Layer 1"
     inkscape:groupmode="layer"
     id="layer1"
     transform="translate(-280.80188,-269.88367)">
    <g
       id="g5781"
       transform="matrix(-0.96592583,-0.25881905,-0.25881905,0.96592583,701.35207,92.334752)"
       style="fill:#ffffff">
      <path
         id="path4266"
         d="m 316.80117,281.49646 a 23.5266,23.5266 0 0 0 -9.5918,2.0664 l 5.12696,5.12696 a 16.93469,16.93469 0 0 1 4.46484,-0.60157 16.93469,16.93469 0 0 1 16.93555,16.93555 16.93469,16.93469 0 0 1 -0.57032,4.26953 l -5.73633,-5.73633 0,16.97071 16.97071,0 -6.08203,-6.08204 a 23.5266,23.5266 0 0 0 2.00976,-9.42187 23.5266,23.5266 0 0 0 -23.52734,-23.52734 z m -28.00781,9.20312 6.01171,6.01172 a 23.5266,23.5266 0 0 0 -1.52929,8.3125 23.5266,23.5266 0 0 0 23.52539,23.52539 23.5266,23.5266 0 0 0 8.37109,-1.56836 l -5.31054,-5.31055 a 16.93469,16.93469 0 0 1 -3.06055,0.28711 16.93469,16.93469 0 0 1 -16.9336,-16.93359 16.93469,16.93469 0 0 1 0.2793,-2.9707 l 5.61719,5.61718 0,-16.9707 -16.9707,0 z"
         style="fill:#ffffff;fill-opacity:1;stroke:none;stroke-width:1;stroke-linecap:round;stroke-linejoin:round;stroke-miterlimit:4;stroke-dasharray:none;stroke-dashoffset:0;stroke-opacity:1"
         inkscape:connector-curvature="0" />
    </g>
  </g>
</svg>
